<?xml version="1.0" encoding="UTF-8"?>
<svg id="Layer_1" xmlns="http://www.w3.org/2000/svg" version="1.1" viewBox="0 0 456.84 533.11">
  <!-- Generator: Adobe Illustrator 29.1.0, SVG Export Plug-In . SVG Version: 2.1.0 Build 142)  -->
  <defs>
    <style>
      .st0 {
        fill: #1a3c67;
      }

      .st1 {
        fill: #1d3e6f;
      }

      .st2 {
        fill: #97b0d5;
      }

      .st3 {
        fill: #6fcbdb;
      }

      .st4 {
        fill: #1c3564;
      }

      .st5 {
        fill: #3e6b9b;
      }

      .st6 {
        fill: #fff;
      }

      .st7 {
        fill: #231f20;
      }

      .st8 {
        fill: #3f6b9b;
      }

      .st9 {
        fill: #fff100;
      }

      .st10 {
        fill: #1e9bd1;
      }
    </style>
  </defs>
  <rect class="st7" width="456.84" height="533.11"/>
  <g>
    <path class="st0" d="M433.99,200.14v137.35c0,9.84-7.98,17.82-17.82,17.82H83.38c-2.05,0-3.72-1.67-3.72-3.73v-12.86h-6.56v35.8c0,2.2-1.78,3.98-3.98,3.98h-16.68c-2.19,0-3.97-1.78-3.97-3.98v-71.35c.31-.08.61-.17.92-.25l-.02-.06,346.84-94.46c11.98-3.26,23.98-6.53,35.97-9.8.56-.15,1.13-.31,1.69-.46.07.66.12,1.32.12,2Z"/>
    <path class="st8" d="M48.47,284.09h-17.11c-1.6,0-2.89,1.3-2.89,2.89v16.98c0,1.6,1.3,2.89,2.89,2.89h3.97c4.38-1.21,8.76-2.43,13.14-3.64v-19.12Z"/>
    <path class="st0" d="M48.47,303.21c-4.38,1.21-8.76,2.43-13.14,3.64h13.14v-3.64Z"/>
    <path class="st5" d="M433.87,198.14c-.66.18-1.33.36-1.99.54-11.95,3.26-23.89,6.51-35.82,9.76l-35.84,9.76c-1.02-.62-2-1.17-2.93-1.66-.2.85-.42,1.74-.66,2.63l-12.02,3.28-24.21,6.59-9.24,2.52-34.77,9.47-47.8,13.02c-.16-.58-.32-1.15-.48-1.68-1.85,1.12-3.81,2.27-5.89,3.41l-35.48,9.67-32.64,8.89-38.25,10.41-3.61.99s.02.03.02.05c-21.27,5.79-42.53,11.58-63.79,17.38v-109.27h-21.65c-2.19,0-3.97-1.78-3.97-3.98v-12.53c0-2.19,1.78-3.97,3.97-3.97h42.3c2.2,0,3.98,1.78,3.98,3.97v27.44h6.56v-18.78c0-2.06,1.67-3.73,3.72-3.73h332.79c9.16,0,16.7,6.93,17.7,15.82Z"/>
    <path class="st5" d="M228.59,254.05l-6.37,1.73c2.08-1.14,4.04-2.29,5.89-3.41.16.53.32,1.1.48,1.68Z"/>
    <path class="st5" d="M360.22,218.2l-3.59.97c.24-.89.46-1.78.66-2.63.93.49,1.91,1.04,2.93,1.66Z"/>
    <path class="st8" d="M31.36,236.25h17.11v22.77h-17.11c-1.6,0-2.89-1.3-2.89-2.89v-16.98c0-1.6,1.3-2.89,2.89-2.89Z"/>
    <g>
      <path class="st5" d="M154.11,274.38c-12.82,3.49-25.64,6.99-38.45,10.48.06-.04.12-.07.19-.11l38.25-10.41s.01.03.01.04Z"/>
      <path class="st5" d="M222.22,255.78s-.09.05-.14.08c-11.78,3.21-23.56,6.42-35.33,9.63,0-.01-.01-.03-.01-.04l35.48-9.67Z"/>
      <path class="st5" d="M276.44,241.04c-15.94,4.35-31.89,8.69-47.84,13.04,0,0,0-.02,0-.03l47.8-13.02s.03.01.05.01Z"/>
      <path class="st5" d="M320.41,229.06c-3.08.84-6.16,1.68-9.24,2.52,0,0-.01,0-.01-.02l9.24-2.52s0,.01,0,.02Z"/>
      <path class="st5" d="M356.63,219.17v.02c-4,1.09-8.01,2.18-12.02,3.28v-.02l12.02-3.28Z"/>
      <path class="st5" d="M396.06,208.44c-11.94,3.26-23.88,6.52-35.82,9.77-.01,0-.01-.01-.02-.01l35.84-9.76Z"/>
    </g>
    <path class="st6" d="M49.72,260.27h-18.36c-2.29,0-4.14-1.86-4.14-4.14v-16.98c0-2.28,1.86-4.14,4.14-4.14h18.36v25.27ZM31.36,237.5c-.91,0-1.64.74-1.64,1.64v16.98c0,.91.74,1.64,1.64,1.64h15.86v-20.27h-15.86Z"/>
    <path class="st6" d="M49.72,308.1h-18.36c-2.29,0-4.14-1.86-4.14-4.14v-16.98c0-2.29,1.86-4.14,4.14-4.14h18.36v25.27ZM31.36,285.34c-.91,0-1.64.74-1.64,1.64v16.98c0,.91.74,1.64,1.64,1.64h15.86v-20.27h-15.86Z"/>
    <path class="st6" d="M395.74,399.44v13.04h-11.45v-13.1c0-5.11-4.14-9.26-9.26-9.26h-22.71c-9.16,0-16.58-7.42-16.58-16.58v-8.66h11.45v8.66c0,2.84,2.3,5.14,5.14,5.14h22.66c11.46,0,20.76,9.29,20.76,20.76Z"/>
    <path class="st6" d="M331.85,417.06v28.39h-11.45v-29.33c0-2.93-2.36-5.29-5.29-5.29-7.21,0-13.74-2.93-18.46-7.64-4.71-4.73-7.64-11.25-7.64-18.46v-19.84h11.45v20.79c0,7.57,6.15,13.71,13.71,13.71,4.88,0,9.3,1.98,12.5,5.18,3.2,3.2,5.18,7.61,5.18,12.5Z"/>
    <g>
      <path class="st6" d="M164.42,126.44h-14.38c-4.36,0-7.89-3.53-7.89-7.89v-25.9h-11.45v25.81c0,10.73,8.7,19.43,19.43,19.43h16.01c5.34,0,9.68,4.33,9.68,9.68v24.96h11.45v-23.25c0-12.61-10.22-22.83-22.83-22.83Z"/>
      <path class="st3" d="M136.67,69.33c-7.1,0-12.87,5.77-12.87,12.87s5.77,12.87,12.87,12.87,12.87-5.78,12.87-12.87-5.77-12.87-12.87-12.87ZM136.67,90.17c-4.39,0-7.97-3.57-7.97-7.97s3.57-7.97,7.97-7.97,7.97,3.57,7.97,7.97-3.57,7.97-7.97,7.97Z"/>
      <circle class="st3" cx="136.67" cy="82.2" r="5.52"/>
    </g>
    <polygon class="st3" points="165.01 177.85 160.72 177.85 160.72 162.68 150.87 153.79 111.36 153.79 95.53 139.02 98.45 135.89 113.05 149.51 152.51 149.51 165.01 160.78 165.01 177.85"/>
    <path class="st3" d="M88.33,119.72c-7.1,0-12.88,5.77-12.88,12.87s5.78,12.87,12.88,12.87,12.87-5.77,12.87-12.87-5.78-12.87-12.87-12.87ZM88.33,140.56c-4.39,0-7.98-3.57-7.98-7.97s3.59-7.97,7.98-7.97,7.97,3.57,7.97,7.97-3.59,7.97-7.97,7.97Z"/>
    <circle class="st3" cx="88.33" cy="132.59" r="5.52"/>
    <g>
      <polygon class="st3" points="211.89 177.85 207.61 177.85 207.61 147.38 166.76 106.33 169.8 103.31 211.89 145.61 211.89 177.85"/>
      <circle class="st3" cx="164.37" cy="100.45" r="7.05"/>
      <circle class="st6" cx="164.37" cy="100.45" r="3.53"/>
    </g>
    <g>
      <g>
        <path class="st6" d="M397.32,135.5v12.66c0,11.02-8.94,19.95-19.96,19.95h-29.19v4.41h-11.46c0-4.37,1.78-8.34,4.64-11.21,2.88-2.86,6.84-4.64,11.21-4.64h23.87c5.2,0,9.43-4.22,9.43-9.43v-11.74h11.45Z"/>
        <g>
          <path class="st3" d="M391.4,114.12c-7.1,0-12.88,5.77-12.88,12.87s5.78,12.87,12.88,12.87,12.87-5.77,12.87-12.87-5.78-12.87-12.87-12.87ZM391.4,134.96c-4.39,0-7.98-3.57-7.98-7.97s3.59-7.97,7.98-7.97,7.97,3.57,7.97,7.97-3.59,7.97-7.97,7.97Z"/>
          <circle class="st3" cx="391.39" cy="126.99" r="5.52"/>
        </g>
      </g>
      <g>
        <path class="st6" d="M312.67,126.44h14.77c4.48,0,8.1-3.53,8.1-7.89v-18.6s0-5.99,0-5.99v-1.3h11.75v1.3s0,5.99,0,5.99v18.52c0,10.73-8.93,19.43-19.94,19.43h-16.44c-5.49,0-9.93,4.33-9.93,9.68v24.96h-11.75v-23.25c0-12.61,10.5-22.83,23.44-22.83Z"/>
        <g>
          <path class="st3" d="M328.79,82.05c0,7.09,5.77,12.87,12.87,12.87s12.87-5.78,12.87-12.87c0-7.1-5.77-12.87-12.87-12.87s-12.87,5.77-12.87,12.87ZM333.69,82.05c0-4.39,3.57-7.97,7.97-7.97s7.97,3.57,7.97,7.97-3.57,7.97-7.97,7.97-7.97-3.57-7.97-7.97Z"/>
          <circle class="st3" cx="341.66" cy="82.05" r="5.52"/>
        </g>
      </g>
      <g>
        <polygon class="st3" points="264.59 177.85 268.88 177.85 268.88 147.38 309.72 106.33 306.68 103.31 264.59 145.61 264.59 177.85"/>
        <circle class="st3" cx="312.11" cy="100.45" r="7.05"/>
        <circle class="st6" cx="312.11" cy="100.45" r="3.53"/>
      </g>
      <g>
        <g>
          <circle class="st3" cx="362.1" cy="145.03" r="7.05"/>
          <circle class="st6" cx="362.1" cy="145.03" r="3.53"/>
        </g>
        <polygon class="st3" points="318.32 177.53 314.04 177.53 314.04 157.64 328.66 143.19 356.66 143.19 356.66 147.47 330.42 147.47 318.32 159.43 318.32 177.53"/>
      </g>
    </g>
    <g>
      <rect class="st6" x="232.51" y="128.92" width="11.45" height="43.61"/>
      <g>
        <path class="st10" d="M248.92,60.4c0,3.49-2.89,6.33-6.44,6.33h-11.41v-12.66h11.41c3.55,0,6.44,2.84,6.44,6.33Z"/>
        <path class="st10" d="M253.4,81.31c0,3.5-2.89,6.34-6.45,6.34h-15.88v-12.67h15.88c3.56,0,6.45,2.84,6.45,6.33Z"/>
        <path class="st10" d="M238.24,24.71c-25.49,0-46.14,20.66-46.14,46.14s20.65,46.14,46.14,46.14,46.14-20.65,46.14-46.14-20.67-46.14-46.14-46.14ZM246.95,95.9h-2.82v7.28h-6.72v-7.28h-4.57v7.28h-6.71v-7.28h-11.45v-8.25h7.99v-33.58h-7.99v-8.25h11.45v-7.3h6.71v7.3h4.57v-7.3h6.72v7.38c7.41.81,13.17,7,13.17,14.49,0,3.13-1,6.04-2.72,8.41,4.31,2.56,7.2,7.2,7.2,12.5,0,8.04-6.65,14.59-14.84,14.59Z"/>
        <path class="st10" d="M238.24,12.47c-32.2,0-58.38,26.19-58.38,58.38s26.19,58.38,58.38,58.38,58.38-26.19,58.38-58.38-26.2-58.38-58.38-58.38ZM238.24,120.66c-27.47,0-49.81-22.34-49.81-49.81s22.34-49.81,49.81-49.81,49.81,22.34,49.81,49.81-22.35,49.81-49.81,49.81Z"/>
        <path class="st10" d="M248.92,60.4c0,3.49-2.89,6.33-6.44,6.33h-11.41v-12.66h11.41c3.55,0,6.44,2.84,6.44,6.33Z"/>
        <path class="st10" d="M253.4,81.31c0,3.5-2.89,6.34-6.45,6.34h-15.88v-12.67h15.88c3.56,0,6.45,2.84,6.45,6.33Z"/>
        <path class="st10" d="M238.24,24.71c-25.49,0-46.14,20.66-46.14,46.14s20.65,46.14,46.14,46.14,46.14-20.65,46.14-46.14-20.67-46.14-46.14-46.14ZM246.95,95.9h-2.82v7.28h-6.72v-7.28h-4.57v7.28h-6.71v-7.28h-11.45v-8.25h7.99v-33.58h-7.99v-8.25h11.45v-7.3h6.71v7.3h4.57v-7.3h6.72v7.38c7.41.81,13.17,7,13.17,14.49,0,3.13-1,6.04-2.72,8.41,4.31,2.56,7.2,7.2,7.2,12.5,0,8.04-6.65,14.59-14.84,14.59Z"/>
        <path class="st10" d="M248.92,60.4c0,3.49-2.89,6.33-6.44,6.33h-11.41v-12.66h11.41c3.55,0,6.44,2.84,6.44,6.33Z"/>
        <path class="st10" d="M253.4,81.31c0,3.5-2.89,6.34-6.45,6.34h-15.88v-12.67h15.88c3.56,0,6.45,2.84,6.45,6.33Z"/>
        <path class="st10" d="M238.24,24.71c-25.49,0-46.14,20.66-46.14,46.14s20.65,46.14,46.14,46.14,46.14-20.65,46.14-46.14-20.67-46.14-46.14-46.14ZM246.95,95.9h-2.82v7.28h-6.72v-7.28h-4.57v7.28h-6.71v-7.28h-11.45v-8.25h7.99v-33.58h-7.99v-8.25h11.45v-7.3h6.71v7.3h4.57v-7.3h6.72v7.38c7.41.81,13.17,7,13.17,14.49,0,3.13-1,6.04-2.72,8.41,4.31,2.56,7.2,7.2,7.2,12.5,0,8.04-6.65,14.59-14.84,14.59Z"/>
      </g>
    </g>
    <g>
      <polygon class="st3" points="211.89 360.15 207.61 360.15 207.61 390.63 166.76 431.68 169.8 434.7 211.89 392.39 211.89 360.15"/>
      <circle class="st3" cx="164.37" cy="437.55" r="7.05"/>
      <circle class="st6" cx="164.37" cy="437.55" r="3.53"/>
    </g>
    <polygon class="st3" points="301.06 424.1 298.14 427.24 263.47 392.4 263.47 360.15 267.75 360.15 267.75 390.62 301.06 424.1"/>
    <g>
      <circle class="st3" cx="303.42" cy="429.92" r="7.05"/>
      <circle class="st6" cx="303.42" cy="429.92" r="3.53"/>
    </g>
    <g>
      <circle class="st3" cx="123.48" cy="417.68" r="7.05"/>
      <circle class="st6" cx="123.48" cy="417.68" r="3.53"/>
    </g>
    <g>
      <circle class="st3" cx="126.76" cy="385.55" r="7.05"/>
      <circle class="st6" cx="126.76" cy="385.55" r="3.53"/>
    </g>
    <g>
      <rect class="st6" x="232.51" y="364.89" width="11.45" height="40.52"/>
      <g>
        <path class="st10" d="M248.92,472.71c0-3.49-2.89-6.33-6.44-6.33h-11.41v12.66h11.41c3.55,0,6.44-2.84,6.44-6.33Z"/>
        <path class="st10" d="M253.4,451.8c0-3.5-2.89-6.34-6.45-6.34h-15.88v12.67h15.88c3.56,0,6.45-2.84,6.45-6.33Z"/>
        <path class="st10" d="M284.38,462.26c0-25.49-20.67-46.14-46.14-46.14s-46.14,20.65-46.14,46.14,20.65,46.14,46.14,46.14,46.14-20.66,46.14-46.14ZM261.78,451.8c0,5.3-2.89,9.94-7.2,12.5,1.71,2.38,2.72,5.28,2.72,8.41,0,7.49-5.77,13.69-13.17,14.49v7.38h-6.72v-7.3h-4.57v7.3h-6.71v-7.3h-11.45v-8.25h7.99v-33.58h-7.99v-8.25h11.45v-7.28h6.71v7.28h4.57v-7.28h6.72v7.28h2.82c8.19,0,14.84,6.55,14.84,14.59Z"/>
        <path class="st10" d="M296.63,462.26c0-32.2-26.2-58.38-58.38-58.38s-58.38,26.19-58.38,58.38,26.19,58.38,58.38,58.38,58.38-26.19,58.38-58.38ZM288.06,462.26c0,27.47-22.35,49.81-49.81,49.81s-49.81-22.34-49.81-49.81,22.34-49.81,49.81-49.81,49.81,22.34,49.81,49.81Z"/>
        <path class="st10" d="M248.92,472.71c0-3.49-2.89-6.33-6.44-6.33h-11.41v12.66h11.41c3.55,0,6.44-2.84,6.44-6.33Z"/>
        <path class="st10" d="M253.4,451.8c0-3.5-2.89-6.34-6.45-6.34h-15.88v12.67h15.88c3.56,0,6.45-2.84,6.45-6.33Z"/>
        <path class="st10" d="M284.38,462.26c0-25.49-20.67-46.14-46.14-46.14s-46.14,20.65-46.14,46.14,20.65,46.14,46.14,46.14,46.14-20.66,46.14-46.14ZM261.78,451.8c0,5.3-2.89,9.94-7.2,12.5,1.71,2.38,2.72,5.28,2.72,8.41,0,7.49-5.77,13.69-13.17,14.49v7.38h-6.72v-7.3h-4.57v7.3h-6.71v-7.3h-11.45v-8.25h7.99v-33.58h-7.99v-8.25h11.45v-7.28h6.71v7.28h4.57v-7.28h6.72v7.28h2.82c8.19,0,14.84,6.55,14.84,14.59Z"/>
        <path class="st10" d="M248.92,472.71c0-3.49-2.89-6.33-6.44-6.33h-11.41v12.66h11.41c3.55,0,6.44-2.84,6.44-6.33Z"/>
        <path class="st10" d="M253.4,451.8c0-3.5-2.89-6.34-6.45-6.34h-15.88v12.67h15.88c3.56,0,6.45-2.84,6.45-6.33Z"/>
        <path class="st10" d="M284.38,462.26c0-25.49-20.67-46.14-46.14-46.14s-46.14,20.65-46.14,46.14,20.65,46.14,46.14,46.14,46.14-20.66,46.14-46.14ZM261.78,451.8c0,5.3-2.89,9.94-7.2,12.5,1.71,2.38,2.72,5.28,2.72,8.41,0,7.49-5.77,13.69-13.17,14.49v7.38h-6.72v-7.3h-4.57v7.3h-6.71v-7.3h-11.45v-8.25h7.99v-33.58h-7.99v-8.25h11.45v-7.28h6.71v7.28h4.57v-7.28h6.72v7.28h2.82c8.19,0,14.84,6.55,14.84,14.59Z"/>
      </g>
    </g>
    <path class="st3" d="M160.45,419.83h-30.62v-4.28h28.77l14.45-15.27c1.45.53,2.9,1.06,4.36,1.59-5.65,5.99-11.31,11.98-16.96,17.96Z"/>
    <polygon class="st3" points="152.03 387.69 132.95 387.69 132.95 383.41 150.12 383.41 160.37 371.93 160.37 360.15 164.65 360.15 164.65 373.57 152.03 387.69"/>
    <polygon class="st3" points="351.99 416.11 313.58 377.21 313.58 360.15 317.86 360.15 317.86 375.45 355.03 413.1 351.99 416.11"/>
    <g>
      <circle class="st3" cx="353.51" cy="414.61" r="7.05"/>
      <circle class="st6" cx="353.51" cy="414.61" r="3.53"/>
    </g>
    <path class="st6" d="M187.61,364.89v17.59c0,12.99-10.53,23.52-23.52,23.52h-56.67c-5.23,0-9.47,4.24-9.47,9.47v8.45h-11.45v-8.14c0-11.72,9.5-21.23,21.23-21.23h56.16c6.78,0,12.27-5.49,12.27-12.27v-17.39h11.45Z"/>
    <rect class="st9" x="320.41" y="445.33" width="11.45" height=".25"/>
    <g>
      <path class="st3" d="M390.62,435.74c7.1,0,12.87-5.77,12.87-12.87,0-7.09-5.77-12.87-12.87-12.87-7.1,0-12.87,5.78-12.87,12.87,0,7.1,5.77,12.87,12.87,12.87ZM390.62,414.9c4.39,0,7.97,3.57,7.97,7.97,0,4.39-3.57,7.97-7.97,7.97-4.4,0-7.97-3.57-7.97-7.97,0-4.4,3.57-7.97,7.97-7.97Z"/>
      <circle class="st3" cx="390.62" cy="422.88" r="5.52"/>
    </g>
    <g>
      <path class="st3" d="M326.13,468.87c7.1,0,12.87-5.77,12.87-12.87,0-7.09-5.77-12.87-12.87-12.87-7.1,0-12.87,5.78-12.87,12.87,0,7.1,5.77,12.87,12.87,12.87ZM326.13,448.03c4.39,0,7.97,3.57,7.97,7.97,0,4.39-3.57,7.97-7.97,7.97-4.4,0-7.97-3.57-7.97-7.97,0-4.4,3.57-7.97,7.97-7.97Z"/>
      <circle class="st3" cx="326.13" cy="456.01" r="5.52"/>
    </g>
    <g>
      <path class="st3" d="M92.1,447.72c7.1,0,12.87-5.77,12.87-12.87,0-7.09-5.77-12.87-12.87-12.87-7.1,0-12.87,5.78-12.87,12.87,0,7.1,5.77,12.87,12.87,12.87ZM92.1,426.88c4.39,0,7.97,3.57,7.97,7.97,0,4.39-3.57,7.97-7.97,7.97-4.4,0-7.97-3.57-7.97-7.97,0-4.4,3.57-7.97,7.97-7.97Z"/>
      <circle class="st3" cx="92.1" cy="434.86" r="5.52"/>
    </g>
    <rect class="st7" x="71.56" y="206.09" width="9.63" height="131.28"/>
    <g>
      <g>
        <path class="st7" d="M170.31,340.33c-39.03,0-70.78-31.75-70.78-70.78,0-7.73,1.25-15.36,3.73-22.68,9.76-28.79,36.7-48.11,67.06-48.11,24.19,0,46.44,12.14,59.54,32.49,7.37,11.43,11.26,24.68,11.26,38.31,0,39.03-31.76,70.78-70.8,70.78Z"/>
        <path class="st7" d="M187.25,269.54c0,9.34-7.58,16.92-16.93,16.92s-16.92-7.58-16.92-16.92c0-1.9.32-3.73.89-5.44,2.26-6.68,8.58-11.5,16.03-11.5,5.99,0,11.24,3.1,14.25,7.79,1.7,2.63,2.68,5.78,2.68,9.15Z"/>
      </g>
      <g>
        <path class="st2" d="M168.71,256.47c8.39-1.04,14.45,2.95,15.85,3.93-3.01-4.69-8.26-7.79-14.25-7.79-7.44,0-13.76,4.81-16.03,11.5,1.13-1.29,6.04-6.61,14.42-7.64Z"/>
        <path class="st5" d="M168.71,256.47c-8.39,1.03-13.3,6.35-14.42,7.64-.58,1.7-.89,3.54-.89,5.44,0,1.68.25,3.3.71,4.84,10.88-2.97,21.76-5.93,32.64-8.9-.45-1.83-1.19-3.55-2.18-5.09-1.41-.98-7.47-4.97-15.85-3.93Z"/>
        <path class="st1" d="M170.31,286.46c9.35,0,16.93-7.58,16.93-16.92,0-1.4-.18-2.76-.5-4.06-10.88,2.97-21.76,5.93-32.64,8.9,2.08,6.98,8.55,12.08,16.21,12.08Z"/>
      </g>
      <g>
        <path class="st5" d="M191.29,258.09c4.75-.77,12.76-2.74,20.89-8.41,4.84-3.38,8.29-7.07,10.63-10.03-2.38-4.18-6.28-9.89-12.44-15.3-4.05-3.56-8.02-6.06-11.33-7.81-1.62,6.77-4,14.49-7.57,22.71-1.89,4.35-3.89,8.33-5.89,11.93,1.9,2.31,3.8,4.61,5.7,6.92Z"/>
        <path class="st5" d="M168.13,245.76c2.97.29,5.95.57,8.92.86,2.81-3.9,7.09-10.96,8.82-20.72,1.03-5.81.86-10.86.42-14.61-4.64-1.28-11.43-2.56-19.62-2.03-5.38.35-9.96,1.39-13.54,2.49,3.65,5.93,7.42,13.07,10.71,21.41,1.74,4.41,3.14,8.64,4.27,12.6Z"/>
        <path class="st5" d="M151.96,254.28c2.31-1.9,4.61-3.8,6.92-5.7-.77-4.75-2.74-12.76-8.41-20.89-3.38-4.84-7.07-8.29-10.03-10.63-4.18,2.38-9.89,6.28-15.3,12.44-3.56,4.05-6.06,8.02-7.81,11.33,6.77,1.62,14.49,4,22.71,7.57,4.35,1.89,8.33,3.89,11.93,5.89Z"/>
        <path class="st4" d="M112.53,286.72c1-.62,2.05-1.24,3.13-1.86-1.13.31-2.27.62-3.4.93.09.31.18.63.27.93Z"/>
        <path class="st5" d="M146.54,271.73c.29-2.97.57-5.95.86-8.92-3.9-2.81-10.96-7.09-20.72-8.82-5.81-1.03-10.86-.86-14.61-.42-1.28,4.64-2.56,11.43-2.03,19.62.32,4.93,1.22,9.17,2.21,12.61,1.13-.31,2.27-.62,3.4-.93,5.27-3.05,11.36-6.12,18.29-8.85,4.41-1.74,8.64-3.14,12.6-4.27Z"/>
        <path class="st4" d="M149.35,280.99c-4.75.77-12.76,2.74-20.89,8.41-4.84,3.38-8.29,7.07-10.63,10.03,2.38,4.18,6.28,9.89,12.44,15.3,4.05,3.56,8.02,6.06,11.33,7.81,1.62-6.77,4-14.49,7.57-22.71,1.89-4.35,3.89-8.33,5.89-11.93-1.9-2.31-3.8-4.61-5.7-6.92Z"/>
        <path class="st4" d="M172.51,293.32c-2.97-.29-5.95-.57-8.92-.86-2.81,3.9-7.09,10.96-8.82,20.72-1.03,5.81-.86,10.86-.42,14.61,4.64,1.28,11.43,2.56,19.62,2.03,5.38-.35,9.96-1.39,13.54-2.49-3.65-5.93-7.42-13.07-10.71-21.41-1.74-4.41-3.14-8.64-4.27-12.6Z"/>
        <path class="st4" d="M188.68,284.8c-2.31,1.9-4.61,3.8-6.92,5.7.77,4.75,2.74,12.76,8.41,20.89,3.38,4.84,7.07,8.29,10.03,10.63,4.18-2.38,9.89-6.28,15.3-12.44,3.56-4.05,6.06-8.02,7.81-11.33-6.77-1.62-14.49-4-22.71-7.57-4.35-1.89-8.33-3.89-11.93-5.89Z"/>
        <path class="st5" d="M222.08,255.86c2.17-.59,4.35-1.18,6.52-1.78-.16-.59-.33-1.17-.49-1.71-1.88,1.16-3.9,2.33-6.03,3.49Z"/>
        <path class="st4" d="M206.7,263.08c-4.41,1.74-8.64,3.14-12.6,4.27-.29,2.97-.57,5.95-.86,8.92,3.9,2.81,10.96,7.09,20.72,8.82,5.81,1.03,10.86.86,14.61.42,1.28-4.64,2.56-11.43,2.03-19.62-.3-4.56-1.09-8.54-1.99-11.82-2.17.59-4.35,1.18-6.52,1.78-4.57,2.5-9.69,4.97-15.39,7.22Z"/>
      </g>
    </g>
    <g>
      <g>
        <path class="st7" d="M328.57,340.33c-39.03,0-70.78-31.75-70.78-70.78,0-7.73,1.25-15.36,3.73-22.68,9.76-28.79,36.7-48.11,67.06-48.11,24.19,0,46.44,12.14,59.54,32.49,7.37,11.43,11.26,24.68,11.26,38.31,0,39.03-31.76,70.78-70.8,70.78Z"/>
        <path class="st7" d="M345.5,269.54c0,9.34-7.58,16.92-16.93,16.92s-16.92-7.58-16.92-16.92c0-1.9.32-3.73.89-5.44,2.26-6.68,8.58-11.5,16.03-11.5,5.99,0,11.24,3.1,14.25,7.79,1.7,2.63,2.68,5.78,2.68,9.15Z"/>
      </g>
      <path class="st2" d="M326.97,256.47c8.39-1.04,14.45,2.95,15.85,3.93-3.01-4.69-8.26-7.79-14.25-7.79-7.44,0-13.76,4.81-16.03,11.5,1.13-1.29,6.04-6.61,14.42-7.64Z"/>
      <path class="st1" d="M328.57,286.46c9.35,0,16.93-7.58,16.93-16.92,0-3.37-.98-6.51-2.68-9.15-1.41-.98-7.47-4.97-15.85-3.93-8.39,1.03-13.3,6.35-14.42,7.64-.58,1.7-.89,3.54-.89,5.44,0,9.34,7.58,16.92,16.92,16.92Z"/>
      <path class="st5" d="M356.63,219.19c1.2-.33,2.4-.65,3.6-.98-1.02-.62-2.01-1.18-2.94-1.67-.21.87-.43,1.76-.66,2.65Z"/>
      <path class="st4" d="M349.73,239.25c-1.89,4.35-3.89,8.33-5.89,11.93,1.9,2.31,3.8,4.61,5.7,6.92,4.75-.77,12.76-2.74,20.89-8.41,4.84-3.38,8.29-7.07,10.63-10.03-2.38-4.18-6.28-9.89-12.44-15.3-2.91-2.56-5.78-4.56-8.39-6.14-1.2.33-2.4.65-3.6.98-1.59,6.11-3.79,12.89-6.91,20.06Z"/>
      <path class="st4" d="M322.11,233.16c1.74,4.41,3.14,8.64,4.27,12.6,2.97.29,5.95.57,8.92.86,2.81-3.9,7.09-10.96,8.82-20.72.21-1.18.36-2.32.48-3.43-8.07,2.2-16.14,4.4-24.2,6.6.58,1.34,1.15,2.7,1.71,4.1Z"/>
      <path class="st5" d="M344.56,211.29c-4.64-1.28-11.43-2.56-19.62-2.03-5.38.35-9.96,1.39-13.54,2.49,3.03,4.93,6.15,10.71,9,17.31,8.07-2.2,16.14-4.4,24.2-6.6.46-4.36.3-8.19-.05-11.17Z"/>
      <path class="st4" d="M298.28,248.39c4.35,1.89,8.33,3.89,11.93,5.89,2.31-1.9,4.61-3.8,6.92-5.7-.65-3.99-2.15-10.27-5.96-16.99-11.57,3.15-23.15,6.31-34.72,9.46,6.56,1.61,13.96,3.93,21.84,7.35Z"/>
      <path class="st5" d="M298.69,217.06c-4.18,2.38-9.89,6.28-15.3,12.44-3.56,4.05-6.06,8.02-7.81,11.33.29.07.58.15.87.22,11.57-3.15,23.15-6.31,34.72-9.46-.73-1.29-1.54-2.59-2.45-3.9-3.38-4.84-7.07-8.29-10.03-10.63Z"/>
      <path class="st4" d="M304.8,271.73c.29-2.97.57-5.95.86-8.92-3.9-2.81-10.96-7.09-20.72-8.82-5.81-1.03-10.86-.86-14.61-.42-1.28,4.64-2.56,11.43-2.03,19.62.35,5.38,1.39,9.96,2.49,13.54,5.93-3.65,13.07-7.42,21.41-10.71,4.41-1.74,8.64-3.14,12.6-4.27Z"/>
      <path class="st4" d="M307.61,280.99c-4.75.77-12.76,2.74-20.89,8.41-4.84,3.38-8.29,7.07-10.63,10.03,2.38,4.18,6.28,9.89,12.44,15.3,4.05,3.56,8.02,6.06,11.33,7.81,1.62-6.77,4-14.49,7.57-22.71,1.89-4.35,3.89-8.33,5.89-11.93-1.9-2.31-3.8-4.61-5.7-6.92Z"/>
      <path class="st4" d="M330.77,293.32c-2.97-.29-5.95-.57-8.92-.86-2.81,3.9-7.09,10.96-8.82,20.72-1.03,5.81-.86,10.86-.42,14.61,4.64,1.28,11.43,2.56,19.62,2.03,5.38-.35,9.96-1.39,13.54-2.49-3.65-5.93-7.42-13.07-10.71-21.41-1.74-4.41-3.14-8.64-4.27-12.6Z"/>
      <path class="st4" d="M346.94,284.8c-2.31,1.9-4.61,3.8-6.92,5.7.77,4.75,2.74,12.76,8.41,20.89,3.38,4.84,7.07,8.29,10.03,10.63,4.18-2.38,9.89-6.28,15.3-12.44,3.56-4.05,6.06-8.02,7.81-11.33-6.77-1.62-14.49-4-22.71-7.57-4.35-1.89-8.33-3.89-11.93-5.89Z"/>
      <path class="st4" d="M386.37,252.37c-5.93,3.65-13.07,7.42-21.41,10.71-4.41,1.74-8.64,3.14-12.6,4.27-.29,2.97-.57,5.95-.86,8.92,3.9,2.81,10.96,7.09,20.72,8.82,5.81,1.03,10.86.86,14.61.42,1.28-4.64,2.56-11.43,2.03-19.62-.35-5.38-1.39-9.96-2.49-13.54Z"/>
    </g>
    <path class="st6" d="M69.12,379.75h-16.68c-2.88,0-5.22-2.34-5.22-5.22v-179.38h-20.39c-2.88,0-5.22-2.34-5.22-5.22v-12.53c0-2.88,2.34-5.22,5.22-5.22h42.3c2.88,0,5.22,2.34,5.22,5.22v26.19h4.06v-17.53c0-2.74,2.23-4.97,4.97-4.97h332.79c10.51,0,19.06,8.55,19.06,19.06v137.35c0,10.51-8.55,19.06-19.06,19.06H83.38c-2.74,0-4.97-2.23-4.97-4.97v-11.61h-4.06v34.55c0,2.88-2.34,5.22-5.22,5.22ZM26.83,174.67c-1.5,0-2.72,1.22-2.72,2.72v12.53c0,1.5,1.22,2.72,2.72,2.72h22.89v181.88c0,1.5,1.22,2.72,2.72,2.72h16.68c1.5,0,2.72-1.22,2.72-2.72v-37.05h9.06v14.11c0,1.36,1.11,2.47,2.47,2.47h332.79c9.13,0,16.56-7.43,16.56-16.56v-137.35c0-9.13-7.43-16.56-16.56-16.56H83.38c-1.36,0-2.47,1.11-2.47,2.47v20.03h-9.06v-28.69c0-1.5-1.22-2.72-2.72-2.72H26.83Z"/>
  </g>
</svg>